<svg xmlns="http://www.w3.org/2000/svg" xmlns:xlink="http://www.w3.org/1999/xlink" width="16px" height="16px" viewBox="0 0 16 16" version="1.1"><g id="surface1"><path style=" stroke:none;fill-rule:nonzero;fill:rgb(38.039216%,85.490197%,98.431373%);fill-opacity:1;" d="M 9.164062 5.9375 C 9.164062 5.296875 8.640625 4.773438 8 4.773438 C 7.359375 4.773438 6.835938 5.296875 6.835938 5.9375 C 6.835938 6.578125 7.359375 7.101562 8 7.101562 C 8.640625 7.101562 9.164062 6.578125 9.164062 5.9375 Z M 9.164062 5.9375 "/><path style=" stroke:none;fill-rule:nonzero;fill:rgb(38.039216%,85.490197%,98.431373%);fill-opacity:1;" d="M 8 10.210938 C 8.914062 11.101562 9.8125 11.625 10.539062 11.625 C 10.773438 11.625 11 11.574219 11.1875 11.460938 C 11.835938 11.085938 12.074219 10.148438 11.851562 8.8125 C 11.8125 8.574219 11.761719 8.335938 11.699219 8.085938 C 11.949219 8.011719 12.175781 7.9375 12.398438 7.863281 C 13.664062 7.375 14.363281 6.699219 14.363281 5.960938 C 14.363281 5.210938 13.664062 4.539062 12.398438 4.0625 C 12.175781 3.976562 11.949219 3.898438 11.699219 3.835938 C 11.761719 3.585938 11.8125 3.351562 11.851562 3.113281 C 12.0625 1.75 11.824219 0.800781 11.175781 0.425781 C 10.988281 0.3125 10.761719 0.261719 10.523438 0.261719 C 9.8125 0.261719 8.898438 0.789062 7.988281 1.675781 C 7.085938 0.789062 6.1875 0.261719 5.460938 0.261719 C 5.226562 0.261719 5 0.3125 4.8125 0.425781 C 4.164062 0.800781 3.925781 1.738281 4.148438 3.074219 C 4.1875 3.3125 4.238281 3.550781 4.300781 3.800781 C 4.050781 3.875 3.824219 3.949219 3.601562 4.023438 C 2.335938 4.511719 1.636719 5.1875 1.636719 5.925781 C 1.636719 6.675781 2.335938 7.351562 3.601562 7.824219 C 3.824219 7.914062 4.050781 7.988281 4.300781 8.050781 C 4.238281 8.300781 4.1875 8.539062 4.148438 8.773438 C 3.9375 10.113281 4.175781 11.0625 4.8125 11.425781 C 5 11.539062 5.226562 11.585938 5.460938 11.585938 C 6.1875 11.613281 7.085938 11.085938 8 10.210938 Z M 7.300781 8.523438 C 7.523438 8.539062 7.761719 8.539062 8 8.539062 C 8.238281 8.539062 8.476562 8.539062 8.699219 8.523438 C 8.476562 8.824219 8.238281 9.101562 8 9.363281 C 7.761719 9.101562 7.523438 8.824219 7.300781 8.523438 Z M 5.75 7.238281 C 5.875 7.449219 5.988281 7.648438 6.125 7.851562 C 5.738281 7.800781 5.375 7.738281 5.023438 7.664062 C 5.136719 7.324219 5.261719 6.976562 5.414062 6.625 C 5.511719 6.824219 5.625 7.039062 5.75 7.238281 Z M 5.023438 4.226562 C 5.375 4.148438 5.738281 4.085938 6.125 4.039062 C 6 4.238281 5.875 4.4375 5.75 4.648438 C 5.625 4.863281 5.511719 5.0625 5.414062 5.273438 C 5.25 4.914062 5.125 4.5625 5.023438 4.226562 Z M 5.710938 5.9375 C 5.875 5.601562 6.050781 5.261719 6.25 4.925781 C 6.4375 4.601562 6.648438 4.273438 6.863281 3.949219 C 7.238281 3.925781 7.613281 3.914062 8 3.914062 C 8.398438 3.914062 8.773438 3.925781 9.136719 3.949219 C 9.363281 4.273438 9.5625 4.601562 9.75 4.925781 C 9.949219 5.261719 10.125 5.601562 10.289062 5.9375 C 10.125 6.273438 9.949219 6.613281 9.75 6.949219 C 9.5625 7.273438 9.351562 7.601562 9.136719 7.925781 C 8.761719 7.949219 8.386719 7.960938 8 7.960938 C 7.601562 7.960938 7.226562 7.949219 6.863281 7.925781 C 6.636719 7.601562 6.4375 7.273438 6.25 6.949219 C 6.050781 6.613281 5.875 6.273438 5.710938 5.9375 Z M 10.601562 5.261719 L 10.261719 4.636719 C 10.136719 4.425781 10.023438 4.226562 9.886719 4.023438 C 10.273438 4.074219 10.636719 4.136719 10.988281 4.210938 C 10.875 4.5625 10.75 4.914062 10.601562 5.261719 Z M 10.601562 6.613281 C 10.75 6.960938 10.875 7.3125 10.988281 7.648438 C 10.636719 7.726562 10.273438 7.789062 9.886719 7.835938 C 10.011719 7.636719 10.136719 7.4375 10.261719 7.226562 C 10.375 7.039062 10.488281 6.824219 10.601562 6.613281 Z M 10.886719 10.949219 C 10.789062 11.011719 10.664062 11.039062 10.523438 11.039062 C 9.914062 11.039062 9.148438 10.539062 8.398438 9.789062 C 8.761719 9.398438 9.113281 8.960938 9.460938 8.476562 C 10.050781 8.425781 10.613281 8.335938 11.136719 8.210938 C 11.199219 8.4375 11.238281 8.664062 11.273438 8.886719 C 11.449219 9.949219 11.3125 10.710938 10.886719 10.949219 Z M 11.539062 4.363281 C 12.9375 4.761719 13.773438 5.375 13.773438 5.9375 C 13.773438 6.425781 13.199219 6.914062 12.1875 7.300781 C 11.988281 7.375 11.761719 7.449219 11.539062 7.511719 C 11.375 7 11.175781 6.476562 10.925781 5.9375 C 11.175781 5.398438 11.386719 4.875 11.539062 4.363281 Z M 10.539062 0.835938 C 10.675781 0.835938 10.789062 0.863281 10.898438 0.925781 C 11.3125 1.164062 11.460938 1.914062 11.289062 2.988281 C 11.25 3.199219 11.199219 3.425781 11.148438 3.664062 C 10.625 3.550781 10.0625 3.460938 9.476562 3.398438 C 9.136719 2.914062 8.773438 2.476562 8.414062 2.085938 C 9.164062 1.351562 9.925781 0.835938 10.539062 0.835938 Z M 8.699219 3.351562 C 8.476562 3.335938 8.238281 3.335938 8 3.335938 C 7.761719 3.335938 7.523438 3.335938 7.300781 3.351562 C 7.523438 3.050781 7.761719 2.773438 8 2.511719 C 8.238281 2.773438 8.476562 3.0625 8.699219 3.351562 Z M 5.113281 0.925781 C 5.210938 0.863281 5.335938 0.835938 5.476562 0.835938 C 6.085938 0.835938 6.851562 1.335938 7.601562 2.085938 C 7.238281 2.476562 6.886719 2.914062 6.539062 3.398438 C 5.949219 3.449219 5.386719 3.539062 4.863281 3.664062 C 4.800781 3.4375 4.761719 3.210938 4.726562 2.988281 C 4.550781 1.925781 4.6875 1.175781 5.113281 0.925781 Z M 4.460938 7.511719 C 3.0625 7.113281 2.226562 6.5 2.226562 5.9375 C 2.226562 5.449219 2.800781 4.960938 3.8125 4.574219 C 4.011719 4.5 4.238281 4.425781 4.460938 4.363281 C 4.625 4.875 4.824219 5.398438 5.074219 5.9375 C 4.824219 6.476562 4.613281 7.011719 4.460938 7.511719 Z M 4.726562 8.886719 C 4.761719 8.675781 4.8125 8.449219 4.863281 8.210938 C 5.386719 8.324219 5.949219 8.414062 6.539062 8.476562 C 6.875 8.960938 7.238281 9.398438 7.601562 9.789062 C 6.851562 10.523438 6.085938 11.039062 5.476562 11.039062 C 5.335938 11.039062 5.226562 11.011719 5.113281 10.949219 C 4.6875 10.710938 4.550781 9.949219 4.726562 8.886719 Z M 4.199219 14.039062 C 4.476562 13.699219 4.488281 13.324219 4.335938 12.949219 C 4.1875 12.574219 3.875 12.398438 3.488281 12.386719 C 3.023438 12.375 2.550781 12.386719 2.085938 12.386719 L 2 12.386719 L 2 15.625 L 2.375 15.625 L 2.375 14.398438 L 2.960938 14.398438 C 3.039062 14.398438 3.101562 14.425781 3.136719 14.488281 L 3.886719 15.648438 C 3.898438 15.675781 3.9375 15.710938 3.960938 15.710938 L 4.449219 15.710938 C 4.148438 15.25 3.863281 14.8125 3.5625 14.363281 C 3.824219 14.324219 4.050781 14.238281 4.199219 14.039062 Z M 2.375 14.011719 L 2.375 12.773438 L 2.511719 12.773438 C 2.800781 12.773438 3.101562 12.761719 3.386719 12.789062 C 3.726562 12.800781 3.960938 13.0625 3.960938 13.398438 C 3.960938 13.738281 3.6875 14 3.351562 14.011719 C 3.050781 14.023438 2.75 14.011719 2.375 14.011719 Z M 7.210938 14.175781 C 7.011719 13.300781 6.210938 13.074219 5.601562 13.351562 C 5.125 13.5625 4.914062 13.976562 4.898438 14.488281 C 4.886719 14.875 5 15.226562 5.300781 15.488281 C 5.636719 15.789062 6.050781 15.824219 6.476562 15.75 C 6.710938 15.699219 6.925781 15.585938 7.085938 15.414062 C 7.023438 15.324219 6.960938 15.238281 6.898438 15.164062 C 6.550781 15.460938 6.164062 15.5625 5.738281 15.363281 C 5.460938 15.226562 5.324219 14.886719 5.300781 14.636719 L 7.238281 14.636719 L 7.238281 14.476562 C 7.25 14.363281 7.238281 14.261719 7.210938 14.175781 Z M 5.324219 14.375 C 5.289062 14 5.664062 13.601562 6.074219 13.601562 C 6.550781 13.585938 6.851562 13.875 6.863281 14.375 Z M 9.164062 13.289062 C 8.976562 13.25 8.773438 13.238281 8.585938 13.25 C 8.289062 13.273438 8.023438 13.414062 7.8125 13.636719 C 7.875 13.726562 7.925781 13.8125 8 13.914062 C 8.023438 13.886719 8.050781 13.863281 8.074219 13.851562 C 8.273438 13.664062 8.511719 13.5625 8.800781 13.585938 C 9.023438 13.601562 9.238281 13.675781 9.300781 13.898438 C 9.351562 14.074219 9.335938 14.261719 9.351562 14.449219 C 9.3125 14.449219 9.300781 14.4375 9.289062 14.425781 C 8.988281 14.175781 8.648438 14.125 8.289062 14.210938 C 7.949219 14.300781 7.738281 14.5625 7.710938 14.898438 C 7.6875 15.289062 7.863281 15.574219 8.199219 15.710938 C 8.414062 15.800781 8.648438 15.800781 8.875 15.75 C 9.050781 15.710938 9.125 15.613281 9.375 15.476562 L 9.375 15.636719 L 9.726562 15.636719 C 9.726562 15.136719 9.738281 14.523438 9.726562 13.949219 C 9.726562 13.585938 9.511719 13.363281 9.164062 13.289062 Z M 9.335938 14.863281 C 9.324219 14.898438 9.335938 14.9375 9.335938 14.976562 C 9.335938 15.238281 9.273438 15.324219 9.023438 15.425781 C 8.851562 15.488281 8.664062 15.511719 8.476562 15.449219 C 8.261719 15.386719 8.113281 15.199219 8.113281 14.988281 C 8.101562 14.773438 8.238281 14.5625 8.449219 14.5 C 8.738281 14.398438 9 14.460938 9.238281 14.636719 C 9.3125 14.699219 9.363281 14.761719 9.335938 14.863281 Z M 11.289062 13.625 C 11.613281 13.523438 11.914062 13.585938 12.136719 13.863281 L 12.175781 13.886719 C 12.261719 13.8125 12.335938 13.738281 12.4375 13.648438 C 12.398438 13.613281 12.386719 13.585938 12.363281 13.550781 C 12 13.164062 11.289062 13.113281 10.851562 13.425781 C 10.238281 13.875 10.25 14.75 10.550781 15.210938 C 10.835938 15.648438 11.25 15.800781 11.738281 15.738281 C 12.023438 15.699219 12.261719 15.5625 12.449219 15.324219 C 12.363281 15.25 12.273438 15.175781 12.1875 15.085938 C 12.164062 15.113281 12.148438 15.125 12.136719 15.148438 C 11.800781 15.523438 11.238281 15.488281 10.9375 15.085938 C 10.761719 14.851562 10.726562 14.574219 10.773438 14.300781 C 10.800781 13.988281 10.960938 13.738281 11.289062 13.625 Z M 13.886719 15.324219 C 13.863281 15.335938 13.851562 15.351562 13.851562 15.351562 C 13.75 15.425781 13.648438 15.4375 13.539062 15.398438 C 13.425781 15.351562 13.414062 15.25 13.398438 15.148438 L 13.398438 13.726562 C 13.398438 13.699219 13.398438 13.75 13.414062 13.625 L 13.886719 13.625 L 13.886719 13.25 L 13.386719 13.25 L 13.386719 12.625 L 13.011719 12.625 L 13.011719 13.300781 L 12.6875 13.300781 C 12.664062 13.300781 12.625 13.324219 12.625 13.351562 C 12.613281 13.4375 12.625 13.5 12.625 13.625 L 13.023438 13.625 L 13.023438 15.226562 C 13.023438 15.425781 13.074219 15.601562 13.25 15.699219 C 13.4375 15.8125 13.800781 15.789062 13.960938 15.648438 C 13.988281 15.636719 14 15.585938 14 15.574219 C 13.960938 15.5 13.925781 15.414062 13.886719 15.324219 Z M 13.886719 15.324219 "/></g></svg>
